Coordinates
version=1
nRows=12
nColumns=24
inDegrees=yes

Units are S.I. units (second, meters, Newtons, ...)
Angles are in degrees.

endheader
time	pelvis_tilt	pelvis_list	pelvis_rotation	pelvis_tx	pelvis_ty	pelvis_tz	hip_flexion_r	hip_adduction_r	hip_rotation_r	knee_angle_r	ankle_angle_r	subtalar_angle_r	mtp_angle_r	hip_flexion_l	hip_adduction_l	hip_rotation_l	knee_angle_l	ankle_angle_l	subtalar_angle_l	mtp_angle_l	lumbar_extension	lumbar_bending	lumbar_rotation
      1.15433333	     -1.52907643	      4.88005035	     -3.59916586	      0.15988159	      0.90478831	      0.31475346	     20.04238391	     -8.02819184	     -6.24567379	    -78.68280946	     -4.26446574	      2.10434924	      6.36199079	     12.62262750	      8.06038343	     -4.45548961	    -20.88040958	     11.74995129	     -5.19917042	      2.07809770	     -7.06130716	     -7.65055977	      1.25992350
      1.15850000	     -1.54922613	      4.70554323	     -3.47849486	      0.16486827	      0.90579574	      0.31445030	     20.72691991	     -7.75384977	     -6.35552489	    -78.65606726	     -3.98844221	      1.93235096	      6.27018502	     12.03135680	      7.96096302	     -4.19187078	    -20.39160441	     11.73961427	     -5.27238936	      2.06416679	     -7.11260307	     -7.42377684	      1.01819637
      1.16266667	     -1.57863865	      4.53781440	     -3.37581558	      0.16989618	      0.90677546	      0.31417024	     21.40771630	     -7.47795677	     -6.43551478	    -78.55746001	     -3.73659342	      1.86395851	      6.18647367	     11.43607079	      7.85813607	     -3.97075515	    -19.87323661	     11.75209196	     -5.28729480	      2.05061028	     -7.11622185	     -7.22068455	      0.83320927
      1.16683333	     -1.59907377	      4.37364307	     -3.26452366	      0.17492481	      0.90774962	      0.31386792	     22.06049567	     -7.21076278	     -6.52092278	    -78.38910795	     -3.52263532	      1.82565894	      6.04606608	     10.82194588	      7.76484447	     -3.71285053	    -19.33131654	     11.77379293	     -5.36081044	      2.02583468	     -7.13158623	     -7.02564340	      0.59115536
      1.17100000	     -1.62871587	      4.18676832	     -3.14683387	      0.17994368	      0.90869226	      0.31358719	     22.69886325	     -6.90970947	     -6.61044226	    -78.14656315	     -3.26243111	      1.80641305	      5.94944706	     10.23275381	      7.63209095	     -3.49853773	    -18.82085320	     11.78837844	     -5.35020888	      2.00643477	     -7.13878322	     -6.79502396	      0.44209311
      1.17516667	     -1.66934511	      3.99243494	     -3.02193480	      0.18494326	      0.90959110	      0.31331278	     23.33096914	     -6.59573296	     -6.70034200	    -77.83742122	     -2.98552816	      1.79120304	      5.90885892	      9.66812425	      7.48142420	     -3.31293795	    -18.32996270	     11.77618009	     -5.29070835	      1.99698982	     -7.13567149	     -6.55731422	      0.32670731
      1.17933333	     -1.67049312	      3.80717011	     -2.89331820	      0.18996338	      0.91052836	      0.31300417	     23.89734234	     -6.30590174	     -6.79631686	    -77.45723976	     -2.74899019	      1.83025871	      5.82229833	      9.03230111	      7.35606061	     -3.05185386	    -17.77795666	     11.78957862	     -5.34954511	      1.97545004	     -7.17715862	     -6.33149476	      0.07446367
      1.18350000	     -1.71075916	      3.60314006	     -2.75822175	      0.19494838	      0.91137762	      0.31273213	     24.48887193	     -5.98225038	     -6.89064202	    -77.01261030	     -2.47344109	      1.86407641	      5.79011411	      8.47065775	      7.18796306	     -2.86411229	    -17.28472038	     11.76288291	     -5.29364979	      1.96575717	     -7.17472126	     -6.08023533	     -0.03854058
      1.18766667	     -1.72042610	      3.39835049	     -2.61905471	      0.19993619	      0.91224322	      0.31244634	     25.02365866	     -5.66640069	     -6.98995992	    -76.49817357	     -2.21206362	      1.93210145	      5.75460942	      7.86512976	      7.02320641	     -2.64613832	    -16.76704224	     11.75592881	     -5.28341277	      1.95478759	     -7.21169988	     -5.82770010	     -0.21450901
      1.19183333	     -1.70729313	      3.21709102	     -2.48151026	      0.20492807	      0.91309647	      0.31214483	     25.52111645	     -5.38743920	     -7.08535337	    -75.93265573	     -1.96490345	      2.01954488	      5.69158919	      7.21677897	      6.89078400	     -2.38729546	    -16.20371201	     11.75565629	     -5.35042562	      1.93552275	     -7.26861243	     -5.60754828	     -0.48038478
      1.19600000	     -1.73974614	      3.01132450	     -2.33942466	      0.20987677	      0.91384854	      0.31188592	     26.04866754	     -5.06676424	     -7.17758823	    -75.29898807	     -1.69015615	      2.10215016	      5.66414931	      6.65474758	      6.70993024	     -2.20426826	    -15.70939343	     11.71421706	     -5.30819200	      1.92567841	     -7.27865468	     -5.35658305	     -0.60847501
      1.20016667	     -1.72032411	      2.83593444	     -2.20007320	      0.21483798	      0.91462899	      0.31160937	     26.50521605	     -4.79362252	     -7.26562673	    -74.61550107	     -1.42280094	      2.19498868	      5.58830411	      6.00447377	      6.57424710	     -1.95318131	    -15.14098853	     11.66967437	     -5.38603202	      1.90211745	     -7.34439459	     -5.14582422	     -0.87932691
